<svg width="364" height="112" viewBox="0 0 364 112" fill="none" xmlns="http://www.w3.org/2000/svg" xmlns:xlink="http://www.w3.org/1999/xlink">
<path d="M157.506 51.0272V59.885H130.872V87.6046H120.608V24.1675H163.708V32.9433H130.872V51.0136H157.506V51.0272ZM197.939 84.6566C194.608 86.6219 190.667 87.6046 186.131 87.6046C181.595 87.6046 177.641 86.6083 174.324 84.6566C170.993 82.6912 168.434 79.9343 166.646 76.413C164.872 72.8099 163.979 68.7427 163.979 64.1705C163.979 59.5984 164.872 55.5448 166.646 51.9963C168.42 48.3931 170.993 45.6225 174.324 43.6572C177.655 41.6918 181.595 40.7092 186.131 40.7092C190.667 40.7092 194.621 41.7055 197.939 43.6572C201.27 45.6225 203.829 48.4204 205.616 51.9963C207.39 55.5175 208.284 59.5984 208.284 64.1705C208.284 68.7427 207.39 72.8372 205.616 76.413C203.842 79.9615 201.27 82.6912 197.939 84.6566ZM176.382 75.7033C178.684 78.6513 181.934 80.139 186.131 80.139C190.329 80.139 193.538 78.6786 195.786 75.7033C198.087 72.7553 199.238 68.9065 199.238 64.1432C199.238 59.38 198.087 55.5312 195.786 52.5831C193.538 49.6351 190.329 48.1475 186.131 48.1475C181.934 48.1475 178.684 49.6351 176.382 52.5831C174.134 55.5312 173.024 59.38 173.024 64.1432C173.024 68.9065 174.134 72.7553 176.382 75.7033ZM235.487 40.8593C236.868 40.8593 238.195 40.9548 239.454 41.1323V49.7443H239.278C238.411 49.5669 237.558 49.4713 236.692 49.4713C232.9 49.4713 229.759 50.7679 227.308 53.3748C224.83 55.9816 223.611 59.3936 223.611 63.6246V87.6046H214.566V41.8966H223.611V50.2356H223.787C226.428 43.9847 230.341 40.8456 235.527 40.8456H235.514L235.487 40.8593ZM263.312 80.1253C266.643 80.1253 269.23 79.3474 271.071 77.7778C272.899 76.2219 274.091 74.5432 274.605 72.728H283.65C282.445 77.191 280.13 80.7805 276.758 83.5101C273.373 86.2398 268.972 87.5909 263.57 87.5909C259.088 87.5909 255.175 86.5946 251.83 84.6429C248.499 82.6776 245.94 79.9206 244.152 76.3994C242.379 72.8508 241.485 68.7836 241.485 64.1569C241.485 59.5301 242.352 55.2582 244.071 51.7233C245.845 48.1748 248.377 45.4588 251.667 43.548C254.931 41.6373 258.776 40.6682 263.136 40.6682C270.083 40.6682 275.336 42.9475 278.911 47.5469C282.54 52.0645 284.327 58.3837 284.327 66.4907H250.53C250.53 70.3805 251.681 73.6151 253.983 76.2219C256.285 78.8287 259.386 80.1253 263.299 80.1253H263.285H263.312ZM263.136 47.8881C259.453 47.8881 256.447 49.0073 254.091 51.2729C251.735 53.4839 250.557 56.2818 250.557 59.7075H275.309C275.309 56.2272 274.199 53.3884 271.951 51.191C269.704 48.98 266.779 47.9018 263.163 47.9018H263.15L263.136 47.8881ZM309.594 59.4482C313.385 60.3217 316.337 61.1816 318.477 62.055C320.643 62.8739 322.525 64.1842 324.069 66.054C325.68 67.8965 326.493 70.4897 326.493 73.7925C326.493 78.0235 324.854 81.3946 321.577 83.865C318.314 86.3353 313.968 87.5909 308.565 87.5909C301.727 87.5909 296.609 86.1579 293.223 83.319C289.838 80.4256 288.024 76.4812 287.807 71.486H296.595C296.825 74.2702 297.773 76.4403 299.452 77.9962C301.172 79.5521 304.151 80.3437 308.43 80.3437C311.354 80.3437 313.575 79.7705 315.064 78.6104C316.608 77.3957 317.393 76.0036 317.393 74.434C317.393 72.8645 317.001 71.7453 316.188 70.8718C315.43 69.9437 314.428 69.275 313.169 68.8655C311.964 68.4151 310.203 67.9101 307.915 67.4052L305.667 66.8865C305.153 66.7773 303.23 66.3406 299.885 65.5899C296.554 64.8256 293.928 63.4608 292.045 61.4136C290.15 59.3936 289.188 56.8414 289.188 53.7705C289.188 51.3275 289.892 49.1438 291.26 47.1648C292.641 45.1312 294.645 43.548 297.286 42.3879C299.926 41.2278 303.027 40.6546 306.602 40.6546C312.289 40.6546 316.649 41.9921 319.695 44.6535C322.796 47.3149 324.529 50.727 324.868 54.9034H316.08C315.741 52.7742 314.875 51.0545 313.494 49.7853C312.167 48.516 309.905 47.8745 306.669 47.8745C304.029 47.8745 301.971 48.3249 300.468 49.2666C299.032 50.1947 298.315 51.4776 298.315 53.0881C298.315 54.3028 298.653 55.2992 299.357 56.0362C300.116 56.7186 301.023 57.2782 302.12 57.6876C303.271 58.0288 304.936 58.4519 307.13 58.9023L309.621 59.4209L309.594 59.4482ZM344.298 49.3758V73.4513C344.298 75.5395 344.732 76.9589 345.585 77.7232C346.506 78.4875 348.063 78.8424 350.229 78.8424C351.218 78.8424 351.99 78.8288 352.558 78.7469V86.2125C350.608 86.6628 348.537 86.9222 346.343 86.9222C342.606 86.9222 339.789 85.9258 337.894 83.9741C336.066 82.0088 335.131 78.7605 335.131 74.2429V49.3895H328.74V41.9239H335.131V24.1564H344.271V41.9239H352.545V49.3895H344.271H344.285L344.298 49.3758Z" fill="white"/>
<mask id="mask0_65_3630" style="mask-type:alpha" maskUnits="userSpaceOnUse" x="0" y="0" width="109" height="112">
<path d="M79.466 36.2751C78.7483 36.5826 75.4303 37.9155 71.5344 36.6572C67.0978 35.2219 65.3922 31.5683 65.1406 30.9811C65.038 30.7294 64.9169 30.4312 64.7864 30.077C64.8703 30.1609 64.9635 30.2448 65.0474 30.3193C69.9126 34.4576 76.1852 33.6001 78.2264 33.7213V22.5741C76.4742 22.7046 71.3013 22.9096 66.3522 19.7873C64.9914 18.9298 63.8637 17.9511 62.9316 16.9259H70.3879V5.92783H59.6695V0.372864H47.9444V5.92783H37.2353V16.9352H45.1203C44.1696 17.9605 43.0512 18.9484 41.6997 19.7966C36.7506 22.9189 31.5778 22.7325 29.8255 22.5741V33.7306C31.8667 33.6094 38.1487 34.4576 43.0046 30.3286C43.0885 30.2541 43.1817 30.1609 43.2656 30.0863C43.1351 30.4312 43.0139 30.7387 42.9114 30.9904C42.6597 31.5683 40.9541 35.2312 36.5176 36.6665C32.6217 37.9248 29.3036 36.592 28.5859 36.2844C27.1506 39.6957 25.7339 43.1162 24.3079 46.5275C25.6407 47.0215 34.2434 50.0786 43.0232 45.8005C44.9898 44.8498 46.6116 43.6941 47.9537 42.5104V58.5788H59.6788V42.1003C61.0955 43.4238 62.8477 44.7473 65.0567 45.8098C73.8551 50.0786 82.4299 47.0308 83.772 46.5368C82.346 43.1256 80.9293 39.705 79.494 36.2937L79.4567 36.2751H79.466Z" fill="#BB5B55"/>
<path d="M53.8722 73.4355C52.1199 73.5753 46.9937 73.4169 42.0446 70.0895C40.6838 69.1761 39.556 68.1322 38.624 67.0417H46.0803V55.3167H35.3619V49.3982H23.6368V55.3167H12.9276V67.0417H20.8127C19.862 68.1322 18.7436 69.1854 17.3921 70.0895C12.443 73.4169 7.27016 73.2118 5.51792 73.0534V84.9369C7.55909 84.8064 13.841 85.7105 18.697 81.3113C18.7809 81.2367 18.8741 81.1342 18.9579 81.0596C18.8275 81.4231 18.7063 81.7586 18.6038 82.0196C18.3521 82.6348 16.6465 86.54 12.21 88.0592C8.31405 89.3921 4.99598 87.9847 4.27831 87.6491C2.84297 91.2841 1.42627 94.9284 0.000244141 98.5633C1.33306 99.0946 9.9358 102.338 18.7156 97.7897C20.6822 96.7738 22.304 95.5435 23.6461 94.2853V111.388H35.3712V93.8379C36.4523 94.9191 37.7479 95.9909 39.2671 96.9416C45.4559 101.574 54.1891 102.478 62.5681 99.5606C64.1246 99.1878 65.7277 98.6193 67.3309 97.7804C69.2975 96.7645 70.9192 95.5342 72.2613 94.276V111.379H83.9864V93.8286C85.4031 95.2453 87.1554 96.6433 89.3643 97.7804C98.1628 102.329 106.738 99.0853 108.08 98.554C106.663 94.9191 105.237 91.2748 103.802 87.6398H103.764C103.047 87.9567 99.7286 89.3734 95.8326 88.0406C91.3961 86.5121 89.6905 82.6161 89.4389 82.001C89.3363 81.74 89.2152 81.4138 89.0847 81.041C89.1686 81.1249 89.2618 81.2181 89.3456 81.2926C94.2109 85.7012 100.484 84.7878 102.525 84.9183V73.0441C100.772 73.1839 95.5996 73.3982 90.6505 70.0709C89.2897 69.1575 88.162 68.1136 87.2299 67.0231H94.6862V55.298H83.9678V49.3796H72.2427V55.298H61.5336V67.0231H69.4186C68.4679 68.1136 67.3495 69.1668 65.998 70.0709C61.0489 73.3982 56.0066 73.3144 54.2077 73.4262H53.8629L53.9095 84.7412C59.6415 84.8623 64.339 82.9983 67.0699 81.479C67.1444 81.4138 67.2283 81.3579 67.3029 81.2926C67.3868 81.2181 67.48 81.1155 67.5639 81.041C67.5452 81.1155 67.5079 81.1808 67.4893 81.2553C68.3095 80.78 68.9433 80.3513 69.372 80.053C67.1631 86.2604 61.2539 90.4266 54.6551 90.4266C50.7219 90.4266 47.031 88.9354 44.2256 86.4188C42.3894 84.9835 41.4108 83.2499 41.01 82.4204C40.5906 81.6654 40.2271 80.8825 39.9382 80.0717C41.7743 81.3765 46.7794 84.5641 53.9095 84.7691" fill="#BB5B55"/>
<path d="M59.9864 38.9127H47.9537V67.0417H59.9864V38.9127Z" fill="#BB5B55"/>
<path d="M59.9025 42.0817C60.0237 42.4918 60.1635 42.9112 60.3406 43.3213C60.8439 44.477 61.6081 45.1108 62.4749 45.7073C64.4322 47.0681 69.0551 48.8017 69.8753 48.6805C69.9064 50.5757 70.0058 52.2813 70.1736 53.7974C66.9114 54.2541 59.6508 52.884 57.0691 50.5632C56.1836 49.7617 55.4473 48.8949 55.4473 48.8949C55.1491 48.5128 54.9347 48.1679 54.7763 47.8976C54.6831 47.7578 54.5899 47.5994 54.4873 47.4316L59.8838 42.063L59.9025 42.0817Z" fill="#BB5B55"/>
<path d="M48.1215 42.0817C48.0003 42.4918 47.8605 42.9112 47.6834 43.3213C47.1801 44.477 46.4159 45.1108 45.5491 45.7073C43.5918 47.0681 38.9689 48.8017 38.1487 48.6805C38.1176 50.5757 38.0182 52.2813 37.8504 53.7974C41.1125 54.2541 48.3731 52.884 50.9549 50.5632C51.8403 49.7617 52.5766 48.8949 52.5766 48.8949C52.8749 48.5128 53.0893 48.1679 53.2477 47.8976C53.3409 47.7578 53.4341 47.5994 53.5366 47.4316L48.1401 42.063L48.1215 42.0817Z" fill="#BB5B55"/>
</mask>
<g mask="url(#mask0_65_3630)">
<rect x="112.176" y="-40.0179" width="185.585" height="124.013" transform="rotate(90 112.176 -40.0179)" fill="url(#pattern0)"/>
<g opacity="0.7">
<rect x="-112.445" y="37.7352" width="129.065" height="150.777" transform="rotate(-45 -112.445 37.7352)" fill="url(#pattern1)"/>
<rect x="-8.58899" y="14.2342" width="151.888" height="122.966" fill="url(#pattern2)"/>
<rect x="-94.0981" y="-22.5192" width="166.158" height="86.6179" fill="url(#pattern3)"/>
<rect x="-77.9684" y="-85.5964" width="243.314" height="196.985" fill="url(#pattern4)"/>
</g>
<rect x="47.0118" y="161.096" width="106.07" height="88.3901" transform="rotate(-165 47.0118 161.096)" fill="url(#pattern5)"/>
</g>
<defs>
<pattern id="pattern0" patternContentUnits="objectBoundingBox" width="1" height="1">
<use xlink:href="#image0_65_3630" transform="matrix(0.000349856 0 0 0.00052356 -0.000993376 0)"/>
</pattern>
<pattern id="pattern1" patternContentUnits="objectBoundingBox" width="1" height="1">
<use xlink:href="#image1_65_3630" transform="matrix(0.00134345 0 0 0.00115 -1.39393 -0.234562)"/>
</pattern>
<pattern id="pattern2" patternContentUnits="objectBoundingBox" width="1" height="1">
<use xlink:href="#image1_65_3630" transform="matrix(0.00134345 0 0 0.00115 -1.39393 -0.234562)"/>
</pattern>
<pattern id="pattern3" patternContentUnits="objectBoundingBox" width="1" height="1">
<use xlink:href="#image1_65_3630" transform="matrix(0.000737591 0 0 0.00239941 -0.31126 -1.39941)"/>
</pattern>
<pattern id="pattern4" patternContentUnits="objectBoundingBox" width="1" height="1">
<use xlink:href="#image1_65_3630" transform="matrix(0.00134345 0 0 0.00115 -1.39393 -0.234562)"/>
</pattern>
<pattern id="pattern5" patternContentUnits="objectBoundingBox" width="1" height="1">
<use xlink:href="#image1_65_3630" transform="matrix(0.0015309 0 0 0.00127314 -1.72795 -0.25968)"/>
</pattern>
</defs>
</svg>
